<svg xmlns="http://www.w3.org/2000/svg" version="1.1" xmlns:xlink="http://www.w3.org/1999/xlink" viewBox="0 0 9.214037072034232 9.130148292980387"><g transform="matrix(0.8565806889294555,0,0,0.8565806889294555,2.9070729492955074,3.230019794399854)"><rect width="10.74271918578545" height="10.74271918578545" x="-3.386788134894786" y="-3.812773963605571" fill="#8fb0a1"></rect><g><path d=" M -1.736496824871892 0.7008134275495492 L -1.0371096764213448 0.7895975285035606 L -1.0617929158355095 0.984037076157897 L -1.4476958956188613 0.935048402014478 L -1.07854225686655 1.1159781977804826 L -1.0991955796416675 1.2786725131647234 L -1.5049499508763513 1.3622391944674197 L -1.1160708555676782 1.4116056732957494 L -1.140754094981843 1.606045220950086 L -1.8401412434323903 1.5172611199960746 L -1.810294673324446 1.2821479934956779 L -1.3336505600489699 1.1642353593980754 L -1.766217460084866 0.9349345155415054 L -1.736496824871892 0.7008134275495492 M -1.5722710877211936 0.23747715542453818 L -0.9068736815464121 0.47043915201598396 L -0.9716404210243177 0.6554290691936537 L -1.6370378271990993 0.42246707260220795 L -1.5722710877211936 0.23747715542453818 M -0.5412611383788422 -0.2368290970641883 L -0.6386321664184496 -0.06672653124429828 L -1.1102354789254605 -0.03594803822702264 L -0.7682946068181307 0.15978759977096343 L -0.8656656348577378 0.32989016559085343 L -1.477514149669077 -0.020347460776101278 L -1.3801431216294697 -0.1904500265959913 L -0.904200457953584 -0.2187445648163382 L -1.2504806812297886 -0.41696415761125305 L -1.1531096531901814 -0.5870667234311431 L -0.5412611383788422 -0.2368290970641883 M -0.5944037211055465 -1.1530759449789891 Q -0.5042775534686395 -1.1818817413936715 -0.4155607319760124 -1.1583376214431333 Q -0.32684391048338524 -1.1347935014925952 -0.25302793266397844 -1.0629589595328608 Q -0.17992861482340078 -0.9918218403105995 -0.15432855107209364 -0.9034199922760192 Q -0.12872848732078657 -0.815018144241439 -0.15435525686306628 -0.7234443014541732 Q -0.179982026405346 -0.6318704586669073 -0.2566985275273924 -0.5530378609956961 L -0.4512794712824011 -0.3530897269023514 L -0.9565247563569819 -0.8447727568209217 L -0.7619438126019732 -1.0447208909142662 Q -0.6845298887424536 -1.1242701485643067 -0.5944037211055465 -1.1530759449789891 M -0.3306729943730368 -0.792470060699292 Q -0.3301822992418246 -0.8603652683231605 -0.39181505742113515 -0.9203436237458513 Q -0.45416447557927486 -0.9810194019060153 -0.5223795387098458 -0.9790306429733595 Q -0.5905946018404169 -0.9770418840407036 -0.6505729572631076 -0.9154091258613931 L -0.6979977034112819 -0.866676247301008 L -0.4385667910751141 -0.614209216335728 L -0.39114204492693994 -0.6629420948961131 Q -0.3311636895042491 -0.7245748530754236 -0.3306729943730368 -0.792470060699292 M 0.11529113629217624 -1.7366647265011808 L 0.20077848593517567 -1.606173680635897 L -0.03510917389822171 -1.4516388562812443 L 0.03284230915134195 -1.3479152044396088 L 0.20683037030505352 -1.4618983372969412 L 0.2884817491307389 -1.3372626588743306 L 0.1144936879770273 -1.223279526016998 L 0.2657405373454109 -0.9924107525630346 L 0.10179024895056735 -0.8850035696782403 L -0.2845468119360647 -1.4747227192617338 L 0.11529113629217624 -1.7366647265011808 M 0.531414125687375 -1.9316873966872212 L 0.6772678675949525 -1.549577875775274 Q 0.6975946727018765 -1.4963254486555162 0.7334073091402664 -1.4768137836488668 Q 0.7692199455786564 -1.4573021186422177 0.8196696133763218 -1.4765590919014087 Q 0.8701192811739873 -1.4958160651606 0.8845780072253071 -1.5350518299801226 Q 0.8990367332766271 -1.574287594799645 0.879066538785614 -1.6266057688120388 L 0.7332127968780366 -2.0087152897239857 L 0.9163264059214147 -2.0786109704425315 L 1.0621801478289923 -1.6965014495305843 Q 1.096771377572354 -1.6058788981162595 1.082894827360323 -1.5272615250094648 Q 1.0690182771482917 -1.44864415190267 1.015456499328045 -1.3912713712768843 Q 0.9618947215077984 -1.3338985906510985 0.8815489542744794 -1.303230077682757 Q 0.8012031870411604 -1.2725615647144155 0.7258380360451511 -1.2807220803444905 Q 0.6504728850491417 -1.2888825959745656 0.5902546185336766 -1.338682298562758 Q 0.5300363520182114 -1.3884820011509502 0.4950885116589385 -1.4800388056726392 L 0.34923476975136103 -1.8621483265845864 L 0.531414125687375 -1.9316873966872212 M 1.476854292944546 -1.6248262694341469 L 1.6930370027260127 -1.6598410661855507 L 1.7170197402269742 -1.5117707170201624 L 1.3073584408694003 -1.4454184766008358 L 1.1946395746148812 -2.14134911767816 L 1.3881181641909885 -2.172686561346083 L 1.476854292944546 -1.6248262694341469 M 2.5809780726184552 -2.1817420662291904 L 2.5368187286161454 -1.7168345998046495 Q 2.5255661334635224 -1.598367814998396 2.455397888802862 -1.5417492010870533 Q 2.3852296441422016 -1.4851305871757106 2.272735974536263 -1.4958158245895457 Q 2.1532736705299573 -1.5071629793653 2.088429542475996 -1.5806237788227078 Q 2.0235854144220347 -1.6540845782801155 2.0354999269365766 -1.7795199974867368 L 2.2286306517467716 -1.7611754305992675 Q 2.2217777222269275 -1.6784527773717746 2.2815088742300804 -1.6727791999838975 Q 2.3352669110329183 -1.667672980334808 2.3416969654058453 -1.7353682859383814 L 2.3858563094081555 -2.200275752362922 L 2.5809780726184552 -2.1817420662291904 M 2.825162848837442 -1.4478440965925723 Q 2.761413410767421 -1.5184646258015535 2.7418719088216075 -1.6121482940778424 Q 2.7223304068757943 -1.7058319623541316 2.755619082542172 -1.8043604560621889 Q 2.78890775820855 -1.9028889497702464 2.861263024432752 -1.9655245263192405 Q 2.9336182906569532 -2.0281601028682346 3.0269754450648585 -2.04517308969767 Q 3.1203325994727638 -2.062186076527105 3.2141241463679338 -2.030497817960072 Q 3.308863082625681 -1.9984894759731702 3.372298867724348 -1.9285026831554122 Q 3.435734652823015 -1.8585158903376544 3.4548024600875396 -1.7649922637712998 Q 3.473870267352064 -1.6714686372049452 3.440581591685686 -1.5729401434968877 Q 3.407292916019308 -1.4744116497888304 3.335411344476395 -1.4116160315299018 Q 3.2635297729334822 -1.3488204132709731 3.1700125768156426 -1.3313337317602492 Q 3.0764953806978026 -1.3138470502495252 2.9827038338026326 -1.3455353088165583 Q 2.8889122869074626 -1.377223567383591 2.825162848837442 -1.4478440965925723 M 3.168908743257807 -1.5264523663174758 Q 3.2258042681035093 -1.5589508163194699 3.252051108532769 -1.6366367440508227 Q 3.2789381158017665 -1.7162174505073304 3.2532507243932933 -1.7760894633566404 Q 3.227563332984821 -1.8359614762059502 3.1565091307915103 -1.8599677326961266 Q 3.0845075392356223 -1.884294072606172 3.0282457507811436 -1.8521092755755326 Q 2.9719839623266644 -1.819924478544893 2.945096955057667 -1.740343772088385 Q 2.9185300312085385 -1.6617104549944546 2.9437437279357224 -1.6019984838550794 Q 2.9689574246629062 -1.542286512715704 3.0409590162187943 -1.5179601728056584 Q 3.112013218412105 -1.493953916315482 3.168908743257807 -1.5264523663174758 M 3.980156647244422 -1.661737729016186 L 3.756854343184924 -1.3190759701318315 Q 3.725733973181522 -1.2713211528789998 3.73101066067441 -1.2308809925293869 Q 3.736287348167297 -1.190440832179774 3.781528753985769 -1.1609583763870774 Q 3.8267701598042416 -1.1314759205943807 3.8670078638316103 -1.1428525270570238 Q 3.9072455678589795 -1.1542291335196668 3.9378199664588127 -1.2011461469610454 L 4.161122270518311 -1.5438079058453997 L 4.325331817563136 -1.4367975107459827 L 4.102029513503638 -1.0941357518616281 Q 4.049070287357498 -1.0128687821506688 3.977321289943478 -0.9778640486124319 Q 3.905572292529458 -0.9428593150741952 3.8276711103988967 -0.9524460675306362 Q 3.7497699282683348 -0.9620328199870772 3.6777188004833605 -1.0089863606939644 Q 3.6056676726983863 -1.0559399014008515 3.567951928848408 -1.1216972026368572 Q 3.5302361849984294 -1.187454503872863 3.5351067937001366 -1.2654450620890654 Q 3.5399774024018438 -1.3434356203052678 3.5934825999515523 -1.4255403938276803 L 3.81678490401105 -1.7682021527120346 L 3.980156647244422 -1.661737729016186 M 4.294063875500721 -0.49430352241366476 L 4.385564947595668 -0.7750659732604179 L 4.371070110099519 -0.7902613569660126 L 4.1829367880302515 -0.6108014641565577 L 4.047651638066201 -0.7526250454087752 L 4.557782376754024 -1.239237447065182 L 4.771063557054491 -1.0156482296828595 Q 4.829733137396044 -0.9541431051602142 4.849110832298792 -0.8910895173141921 Q 4.8684885272015395 -0.8280359294681701 4.851930568346603 -0.7707813750767663 Q 4.835372609491666 -0.7135268206853624 4.789062868674614 -0.6693520778399582 Q 4.736964410255433 -0.6196554921388784 4.670264672491015 -0.6106197308451122 Q 4.603564934726598 -0.6015839695513461 4.534464864491552 -0.6407014885615264 L 4.445224323674839 -0.33583737805531977 L 4.294063875500721 -0.49430352241366476 M 4.468031129935219 -0.882752224798578 L 4.534983474560285 -0.8125640238727356 Q 4.562592688838663 -0.783620435862079 4.5901455002829135 -0.7822630186389801 Q 4.617698311727164 -0.7809056014158812 4.643747540936755 -0.8057538942664211 Q 4.668349590745813 -0.8292217264030421 4.66830986758334 -0.8575148072192127 Q 4.668270144420866 -0.8858078880353834 4.641351160499449 -0.9140278863457736 L 4.574398815874382 -0.9842160872716159 L 4.468031129935219 -0.882752224798578 M 4.844800792398129 0.324376159532072 L 4.747102201500298 0.15446151820714554 L 4.958566673223193 -0.26819647260688984 L 4.617003567702677 -0.07180236641431256 L 4.519304976804847 -0.241717007739239 L 5.130477538713383 -0.5931328576523531 L 5.228176129611214 -0.42321821632742673 L 5.012377100711663 0.001932085478900225 L 5.358274763408835 -0.19695433170596865 L 5.455973354306665 -0.027039690381042203 L 4.844800792398129 0.324376159532072 M 5.473542166991762 0.4882447358818298 L 5.3636800463290095 0.5222346526731783 L 5.430182057442518 0.7371822800568246 L 5.287838961975125 0.7812213896386586 L 5.221336950861617 0.5662737622550122 L 5.100010956738403 0.6038104529724144 L 5.1753799026670455 0.8474177640072136 L 5.025394224892679 0.8938213895397502 L 4.892094638171826 0.46297081198408563 L 5.565597203973917 0.254597843828428 L 5.698896790694771 0.6854484213840925 L 5.548911112920404 0.731852046916629 L 5.473542166991762 0.4882447358818298 M 5.815939198682726 1.5969249013072129 L 5.31488575475463 1.3924488725708493 L 5.091763993496196 1.4122650188393444 L 5.074336400572563 1.2160373984468824 L 5.297458161830997 1.1962212521783873 L 5.754632996164569 0.9066419524139329 L 5.774449142433064 1.1297637136723668 L 5.5144852275893115 1.2773400091236011 L 5.796388447230326 1.3767913779227758 L 5.815939198682726 1.5969249013072129" fill="#212121" fill-rule="nonzero"></path></g><g><path d=" M -0.5874440010256752 3.8516364412326745 Q -0.6599538721234306 3.8407195690836047 -0.7266558737119808 3.756705992796138 L -0.8063591128982994 3.656316888927216 L -1.0185289919971556 3.824767706498301 L -1.0580979759903633 3.7749291442938717 L -0.5604243334061336 3.3798045755616966 L -0.4411521102266073 3.530032241635048 Q -0.37501537983795996 3.613333838462451 -0.3805406137472135 3.686786532330879 Q -0.386065847656467 3.760239226199307 -0.45085597852222503 3.8116789053904774 Q -0.51493412992792 3.8625533133817447 -0.5874440010256752 3.8516364412326745 M -0.4915555049152388 3.7604163842659215 Q -0.4417169427108095 3.7208474002727137 -0.43813125894474736 3.672730438133739 Q -0.4345455751786852 3.6246134759947646 -0.48315889837034054 3.563383242429323 L -0.562862137556659 3.462994138560401 L -0.7636403452945029 3.6224006169330383 L -0.6839371061081843 3.72278972080196 Q -0.5912326293240975 3.839554352252337 -0.4915555049152388 3.7604163842659215 M -0.566233409193124 4.30876364735388 Q -0.5874219517943163 4.260753530896281 -0.5818470328980001 4.213416218913599 Q -0.576272114001684 4.166078906930917 -0.5456300432412484 4.128851808092272 L -0.4953386620920769 4.173532864669076 Q -0.5227342969524973 4.211212131175721 -0.5187959919827685 4.261529164112413 Q -0.5148576870130397 4.311846197049106 -0.46252746608755035 4.358338647811455 Q -0.41427492471469657 4.401208310202712 -0.36403234521815686 4.4014600458242334 Q -0.3137897657216171 4.401711781445755 -0.27997707425809026 4.36365343895449 Q -0.2528061614748991 4.3330708423097235 -0.2518328197258296 4.300494122270957 Q -0.25085947797676 4.267917402232191 -0.2658150549400706 4.238213489135906 Q -0.2807706319033813 4.20850957603962 -0.3118866584401575 4.161407880188337 Q -0.3479874233791135 4.10622936394225 -0.36498320187551314 4.069240604748546 Q -0.3819789803719128 4.0322518455548435 -0.37874343852606746 3.988916397927873 Q -0.37550789668022216 3.9455809503009025 -0.3362610226600571 3.9014060884806843 Q -0.30365592732022767 3.8647069725069643 -0.2589653384460257 3.852729754740893 Q -0.2142747495718238 3.840752536974821 -0.16512331989005313 3.8552355199185624 Q -0.11597189020828247 3.8697185028623036 -0.0711174151292917 3.9095691749443175 Q -0.005194929028350614 3.968137586943641 0.006561651930805379 4.036345201415336 Q 0.018318232889961483 4.104552815887031 -0.02085010241973717 4.160957992851613 L -0.07250071008645387 4.115069340151113 Q -0.0512946862383683 4.081619383590951 -0.05825198151734057 4.034700416948121 Q -0.06520927679631283 3.9877814503052917 -0.11142297839284887 3.9467231820995807 Q -0.15423861369552183 3.908683904203113 -0.2030096056359018 3.9060914297743494 Q -0.2517805975762818 3.903498955345586 -0.286800885163506 3.942916524354396 Q -0.3133679998848485 3.97281950774039 -0.31403944260299366 4.00505642114977 Q -0.3147108853211389 4.03729333455915 -0.29971740075936626 4.067638953315746 Q -0.2847239161975937 4.097984572072342 -0.25428750291959007 4.144482469861776 Q -0.21954596449817926 4.1984533899841665 -0.20217247177393138 4.236385753869105 Q -0.18479897904968356 4.274318117754043 -0.18803452089552875 4.317653565381013 Q -0.19127006274137404 4.360989013007984 -0.22991313869969043 4.404484261569429 Q -0.2594992437302764 4.437785311249286 -0.30373630317970624 4.451989545027214 Q -0.34797336262913603 4.466193778805142 -0.3989361864964528 4.453749635637719 Q -0.44989901036376945 4.441305492470295 -0.49815155173662323 4.398435830079038 Q -0.5450448665919319 4.356773763811478 -0.566233409193124 4.30876364735388 M 0.5574336983466999 4.36079730075859 L 0.18025307414213376 4.584152778163192 L 0.05036914093507333 4.794566574164206 L -0.003781468329893567 4.761140561941801 L 0.12610246487716686 4.550726765940786 L 0.1551720295212315 4.112489781392151 L 0.21628485997740843 4.150213423757437 L 0.18373869497013512 4.517930643581162 L 0.4970944480228796 4.323551172853625 L 0.5574336983466999 4.36079730075859 M 0.6211546227809623 4.56040920326545 Q 0.6850184553140897 4.504871581574327 0.7658196886764757 4.490372951504762 Q 0.8466209220388617 4.475874321435197 0.9285867253391538 4.505843238915775 Q 1.0284825481113846 4.542367857095228 1.082449940355159 4.615821051811837 Q 1.1364173325989333 4.689274246528446 1.1373323311392745 4.78737179858669 L 1.0673198741536085 4.761773348238696 Q 1.0638700725089443 4.691787519501842 1.0238477787199354 4.638436263699059 Q 0.9838254849309265 4.585085007896275 0.9095439756900368 4.557925676429502 Q 0.8438005709595942 4.533888107200289 0.780052884165128 4.5454264456769025 Q 0.7163051973706618 4.556964784153517 0.665349936480566 4.603670821767575 Q 0.61439467559047 4.650376859381632 0.5866109916761846 4.726365989524611 Q 0.558827307761899 4.80235511966759 0.5677948665568108 4.870486587719046 Q 0.5767624253517225 4.938618055770502 0.6180334240357555 4.988554069769107 Q 0.6593044227197884 5.038490083767711 0.725047827450231 5.062527652996924 Q 0.7993293366911207 5.089686984463698 0.8641696402687329 5.075160309408427 Q 0.9290099438463453 5.060633634353156 0.9764765930406076 5.010232189492707 L 1.0464890500262738 5.0358306398407 Q 0.9828266305109732 5.109348988442442 0.8939368603166367 5.130085760454396 Q 0.8050470901223002 5.15082253246635 0.706005077801114 5.114610090510652 Q 0.624039274500822 5.084641173030074 0.5716460775002334 5.021443052054571 Q 0.5192528804996449 4.958244931079067 0.5061176843268704 4.875038354475425 Q 0.4929824881540958 4.791831777871783 0.5251366392009655 4.703889301414178 Q 0.5572907902478352 4.6159468249565725 0.6211546227809623 4.56040920326545 M 1.817600200211348 4.70460637204383 L 1.734472592252211 5.334600245136127 L 1.671383077064141 5.32627559197856 L 1.7102710996716344 5.031557428171434 L 1.3686864388676556 4.986485377504033 L 1.3297984162601624 5.28120354131116 L 1.2667089010720924 5.272878888153593 L 1.3498365090312296 4.642885015061294 L 1.4129260242192996 4.651209668218861 L 1.375584008626783 4.934211207776775 L 1.7171686694307615 4.979283258444176 L 1.7545106850232783 4.6962817188862624 L 1.817600200211348 4.70460637204383 M 2.1674325743173934 5.300186758531246 Q 2.0921652253942553 5.265493418551141 2.044265156213284 5.195450598822073 Q 1.9963650870323126 5.125407779093005 1.9878897405669593 5.032155770549846 Q 1.979414394101606 4.938903762006686 2.013902021788863 4.8613730148179375 Q 2.0483896494761202 4.783842267629189 2.116169070939577 4.736147910741066 Q 2.183948492403034 4.688453553852943 2.271768345108728 4.680471916890426 Q 2.3604935571206664 4.672407995010769 2.435760906043804 4.707101334990875 Q 2.5110282549669423 4.74179467497098 2.5584756444947914 4.8118786371586175 Q 2.6059230340226405 4.881962599346254 2.614398380487994 4.975214607889414 Q 2.622873726953347 5.068466616432573 2.588838778919212 5.145956221162753 Q 2.5548038308850773 5.223445825892932 2.4870244094216205 5.271140182781054 Q 2.4192449879581637 5.318834539669178 2.3305197759462253 5.326898461548834 Q 2.242699923240531 5.334880098511351 2.1674325743173934 5.300186758531246 M 2.449288441857906 5.22755872044363 Q 2.502458461828034 5.189864120556197 2.5294971649459215 5.125790110367692 Q 2.5565358680638086 5.061716100179187 2.5492125104384065 4.981139121923447 Q 2.5418891528130043 4.900562143667707 2.5037831283398737 4.842865327166358 Q 2.4656771038667435 4.785168510665009 2.4065825698625822 4.757677240502854 Q 2.347488035858421 4.730185970340701 2.276870009971368 4.73660419387757 Q 2.206251984084315 4.74302241741444 2.1530819641141865 4.780717017301873 Q 2.0999119441440586 4.818411617189307 2.0728320985676016 4.8820329477246895 Q 2.0457522529911443 4.945654278260072 2.053075610616547 5.026231256515812 Q 2.060398968241949 5.106808234771552 2.098546135173649 5.164957730926024 Q 2.136693302105349 5.2231072270804955 2.1957878361095102 5.250598497242649 Q 2.2548823701136715 5.278089767404803 2.3255003960007246 5.271671543867933 Q 2.3961184218877776 5.265253320331064 2.449288441857906 5.22755872044363 M 2.940202352823842 5.160501655602296 L 3.1598293784469864 5.098607295885995 L 3.1738850696973016 5.148482755888065 L 2.8930074791593356 5.2276384908240505 L 2.7206403180370478 4.61600784974605 L 2.7818908829518687 4.598746474526364 L 2.940202352823842 5.160501655602296 M 3.4911535480359555 4.987992199672184 Q 3.408443940695579 4.982708024571632 3.3385477172488107 4.934594292945204 Q 3.268651493802043 4.886480561318776 3.2271870640222278 4.8025253967481785 Q 3.1857226342424125 4.718570232177581 3.190000391144425 4.633822878124326 Q 3.194278148046437 4.549075524071071 3.240354132959987 4.480185718822842 Q 3.2864301178735364 4.411295913574613 3.3654946903332252 4.372246887471292 Q 3.4453743614780654 4.332795294088555 3.528083968818442 4.338079469189107 Q 3.6107935761588186 4.343363644289658 3.6802822502630113 4.391678659555794 Q 3.7497709243672035 4.43999367482193 3.7912353541470187 4.523948839392528 Q 3.8326997839268335 4.607904003963125 3.828829576367397 4.692450074376673 Q 3.824959368807961 4.776996144790219 3.778883383894411 4.845885950038449 Q 3.7328073989808614 4.914775755286677 3.652927727836021 4.954227348669415 Q 3.573863155376332 4.993276374772735 3.4911535480359555 4.987992199672184 M 3.7279925176539006 4.8188033570915305 Q 3.764036214074325 4.7645006331023065 3.766206475379218 4.694989049795621 Q 3.768376736684111 4.625477466488934 3.7325482488161157 4.552933683510457 Q 3.69671976094812 4.480389900531979 3.640404200561818 4.440270710685798 Q 3.5840886401755156 4.400151520839616 3.5190600996371626 4.395767139497937 Q 3.454031559098809 4.391382758156258 3.3904538616569977 4.422783005950681 Q 3.326876164215186 4.454183253745104 3.2908324677947616 4.508485977734328 Q 3.2547887713743373 4.5627887017235516 3.252417226429736 4.631892735687662 Q 3.2500456814851355 4.700996769651772 3.285874169353131 4.77354055263025 Q 3.3217026572211266 4.846084335608727 3.3782195012471363 4.886611074797484 Q 3.4347363452731465 4.927137813986241 3.4997648858114996 4.93152219532792 Q 3.564793426349853 4.9359065766696 3.6283711237916645 4.904506328875177 Q 3.6919488212334763 4.873106081080754 3.7279925176539006 4.8188033570915305 M 4.270683023360876 3.980548466862862 Q 4.209546476763239 3.949875432014494 4.143615004707378 3.958141643283599 Q 4.077683532651516 3.9664078545527044 4.019761880716395 4.014765590922998 Q 3.965329484921944 4.0602102106444775 3.9430371486490894 4.121455501302581 Q 3.9207448123762347 4.182700791960683 3.934366619592622 4.250082338503046 Q 3.947988426809009 4.317463885045409 3.999259279828115 4.3788747931211995 Q 4.0505301328472205 4.4402857011969905 4.114688540154137 4.466067293610515 Q 4.178846947461052 4.49184888602404 4.243088163476812 4.480848883791584 Q 4.307329379492571 4.469848881559129 4.361761775287023 4.4244042618376485 Q 4.412704914940804 4.381872758764981 4.435176576899121 4.32580698028765 Q 4.457648238857438 4.269741201810319 4.448338492665084 4.208233776757909 Q 4.439028746472731 4.1467263517055 4.397073382891921 4.089380839262237 L 4.191905121820528 4.2606720982124315 L 4.158695592024062 4.220894578208794 L 4.415504843977369 4.0064891928561694 L 4.44521863379526 4.042079605491002 Q 4.495330723992747 4.109195035128143 4.5073328567940285 4.18740300146344 Q 4.51933498959531 4.265610967798738 4.491700025050984 4.339606632005573 Q 4.464065060506659 4.413602296212408 4.398467045062064 4.4683688892100895 Q 4.330775475933067 4.524883352197058 4.249135867406285 4.5391583643682045 Q 4.1674962588795035 4.553433376539351 4.088260226623758 4.5230678629506285 Q 4.0090241943680125 4.492702349361905 3.949013991402468 4.420823672864104 Q 3.8890037884369235 4.348944996366304 3.8732722179413708 4.265560759769187 Q 3.857540647445818 4.18217652317207 3.886161532964206 4.104397049240731 Q 3.914782418482594 4.026617575309391 3.982473987611591 3.9701031123224224 Q 4.0606333251625975 3.904849299389015 4.151879734792557 3.8949886084644625 Q 4.243126144422515 3.8851279175399105 4.327906824067863 3.9327733538223315 L 4.270683023360876 3.980548466862862 M 4.574768748923847 3.3385281921277254 L 4.7521632295926 3.739382393540467 L 4.945821642729811 3.893136159914074 L 4.906252658736604 3.9429747221185036 L 4.7125942455993926 3.789220955744896 L 4.280827724974303 3.708757511360629 L 4.325484149766638 3.6525111340156298 L 4.686812052151947 3.7281243178488914 L 4.530677595331415 3.394062590012661 L 4.574768748923847 3.3385281921277254" fill="#212121" fill-rule="nonzero"></path></g><g transform="matrix(1,0,0,1,0,0)" clip-path="url(#SvgjsClipPath144250)"><g clip-path="url(#SvgjsClipPath14423783dfefa5-a088-4fec-a99b-5725bed65957)"><path d=" M 2.013295851951967 1.6206116896947846 C 1.7888998943273795 1.6245169537291915 1.5876109374675893 1.4832080395700462 1.5150487252174438 1.2708321411286296 C 1.4583972633158677 1.087849141644116 1.5072186601772206 0.8885386431613916 1.642026250545849 0.7524538173543283 C 1.7571275889814522 0.6295318869960528 1.932749904039073 0.5839265162165588 2.09311604821469 0.6353154145791162 C 2.211259665601304 0.6712246039006248 2.306298654697079 0.7595161960166509 2.3507953703238598 0.8747005113783848 C 2.393284623806859 0.9835628227780211 2.3833365099420187 1.105919055341393 2.3238195662905494 1.2064878025902386 C 2.2671221688294496 1.3048041656747444 2.1655792717546785 1.3688275036542006 2.0524258661980372 1.3776029774283556 C 1.9359156552766188 1.3839742844579324 1.8264929236212777 1.3214484161040725 1.7728287033118133 1.2178367649214115 C 1.721728550021481 1.1090668868231146 1.7516101780492677 0.9794585732556319 1.845175192673518 0.9040417310638617 C 1.9117716469306225 0.8538716048069509 2.0008233632039776 0.845130570381603 2.07590387474568 0.8813941343941116 C 2.1532776367943303 0.9214272883120792 2.1938614937139413 1.008655690264168 2.1746473962257924 1.093627279185977 C 2.172121549296677 1.1033145946977443 2.1658507632425947 1.1116016938573963 2.157214624414996 1.116665397115325 C 2.1485784855874 1.1217291003732566 2.138284469958984 1.123154587118152 2.128597282997301 1.1206282472155802 C 2.1084346323477927 1.1153571940319587 2.0963590110667507 1.0947430271062975 2.1016214789639993 1.0745781339870875 C 2.1114940480414934 1.0237328853407814 2.0869802691341364 0.9724071607535019 2.0412278878446575 0.9481290525809777 C 1.991771395897747 0.9252807332846011 1.9337573780449004 0.9314785641918799 1.8902439100463182 0.9642591742091008 C 1.8256692897819353 1.0181144485650053 1.8053793357098362 1.1086603046760473 1.8407966573173649 1.184922257761374 C 1.8809384090272872 1.2612388274830295 1.9620160655481205 1.3070135519887816 2.048097658834484 1.3019600045513875 C 2.1358659342521995 1.2941455256723056 2.2143745143737568 1.2441991683175737 2.2586448158742685 1.1680120522479611 C 2.3070031208546773 1.0874953916731447 2.3150069013101495 0.9890209719064801 2.2802858526920344 0.9017518074005879 C 2.24406998148638 0.8081674876123831 2.1668113644020592 0.736449218203661 2.070795583496833 0.7072844439963267 C 1.9373748024026123 0.6647638247536017 1.7913959667723705 0.702924064000568 1.6958520386309583 0.8052982095837479 C 1.5806940173324138 0.9212276220197894 1.5388101258100297 1.0911916604521537 1.5869170986494543 1.2473541325809883 C 1.652343489028735 1.4489932349306707 1.8612046583164397 1.5719696848474183 2.083553729620795 1.539986245550472 C 2.3779724863275584 1.4974590918039399 2.5001940163553136 1.1961202361147512 2.501276068196202 1.1930502285661861 C 2.508945028852555 1.1736741434517246 2.5308649729578505 1.1641785047668511 2.5502452049954667 1.1718369796855201 C 2.5595593245371644 1.175510109311086 2.56703251134853 1.1827332769864738 2.5710203333764663 1.1919170659407554 C 2.5750081554044084 1.2011008548950373 2.575183859099876 1.21149276523894 2.5715087818687326 1.2208061164847808 C 2.565922374690194 1.2348727904163272 2.431471142460771 1.566005817724387 2.094248428048178 1.6146729865680505 C 2.067441455166564 1.6185902851515253 2.04038750518604 1.6205749703226164 2.0132958519519644 1.620611689694786 Z" fill="#212121" transform="matrix(1,0,0,1,0,0)" fill-rule="nonzero"></path></g><g clip-path="url(#SvgjsClipPath14423783dfefa5-a088-4fec-a99b-5725bed65957)"><path d=" M 1.6512362731915495 1.8560963670675956 C 1.645238213218827 1.8560850273438132 1.6393292104952584 1.8546444383586513 1.6339989357262397 1.8518939796855423 C 1.497301868886325 1.7814108811009284 1.3830469374014587 1.6740942258948168 1.3041492722294654 1.5420748572433471 C 1.0703043425323784 1.150494940152428 1.1975002996069977 0.6435233728352814 1.5885024304163395 0.4087136279001074 C 1.9800779813883125 0.17483906335486404 2.487071753590037 0.3020405914944641 2.7218636597595807 0.6930667860869818 C 2.955735930526486 1.0846346992515965 2.8285335293873004 1.591620694163684 2.4375105015727065 1.826402851433923 C 2.428918586244113 1.831548094338417 2.4186341300435457 1.8330680019558465 2.40892121114697 1.8306279732534514 C 2.399208292250394 1.8281879445510565 2.3908631737867743 1.8219880125889305 2.3857229971878766 1.8133930653469676 C 2.375025400232441 1.7955062018456873 2.3808493962479473 1.7723341325924977 2.398732783274836 1.7616307249584349 C 2.7540581288138113 1.548325868744616 2.8696687524309534 1.0876507421346693 2.657167025272994 0.7318445043848548 C 2.443869818208955 0.37649493074512375 1.9831738943930912 0.2608706556617321 1.6273556407031156 0.4733850983903983 C 1.2720271286975258 0.6866997042635014 1.1564173785033616 1.1473826075688498 1.3689213987049575 1.5031964829602769 C 1.4405743956762995 1.6231366258828965 1.544352885364764 1.7206392452055215 1.6685239386494624 1.784680945568982 C 1.6870451910192226 1.7942323567458478 1.6943218896411312 1.8169861202385116 1.6847798802590812 1.8355122180944208 C 1.6783433842243616 1.8481209541926547 1.6653928232213728 1.8560681101569787 1.6512362731915495 1.856096367067594 Z" fill="#212121" transform="matrix(1,0,0,1,0,0)" fill-rule="nonzero"></path></g><g clip-path="url(#SvgjsClipPath14423783dfefa5-a088-4fec-a99b-5725bed65957)"><path d=" M 1.3073450997595273 0.35111324037003905 C 1.2968279687151039 0.351095046242257 1.2867953136104857 0.3466897985917735 1.2796647038298314 0.3389590301572721 C 1.2655368999154357 0.3236415122733483 1.2664943349000117 0.2997732213049122 1.2818036435153082 0.2856365219981583 C 1.336278335705895 0.23541869370868115 1.3957679531541405 0.19093007263753609 1.459335637409855 0.15287127752081595 C 1.6261232787321775 0.052930341205856934 1.8168946419763825 0.00009773582162366975 2.011333060240585 0 C 2.26975337496403 -0.00013076873726779862 2.5196877893231147 0.0922289235974989 2.715924956632842 0.2603718697132361 C 2.731730952171569 0.27395819217418643 2.7335333909175366 0.29778417934748963 2.7199511960407956 0.3135937218871513 C 2.7063721845686195 0.3294073847099785 2.6825455833995613 0.33122113543726883 2.666729343866883 0.3176451252914074 C 2.4841726600714438 0.16123223913090157 2.2516570452613784 0.07533321573880661 2.0112575682516876 0.07549198889916821 C 1.8304846303602236 0.07558947508906885 1.6531230995701345 0.12471741896634586 1.498063027715131 0.2176434039963068 C 1.4389316045964404 0.2530579521114823 1.3836059004594408 0.29447001323277927 1.3329620479926494 0.3412237898242486 C 1.3259674919087927 0.34761950247638784 1.3168228430688194 0.3511498040423084 1.3073450997595273 0.35111324037004044 Z" fill="#212121" transform="matrix(1,0,0,1,0,0)" fill-rule="nonzero"></path></g><g clip-path="url(#SvgjsClipPath14423783dfefa5-a088-4fec-a99b-5725bed65957)"><path d=" M 1.9044615679556631 3.177583632747568 C 1.886452365784132 3.1775655942128394 1.8709642713349761 3.1648274267373107 1.8674704933950697 3.1471603612212014 C 1.8313694984284465 2.975783720096053 1.8465547453865325 2.797569311703795 1.91113002697509 2.634771068566234 C 1.946747135863227 2.547413139907147 1.9935304217785021 2.4650370015001903 2.0503120905088634 2.3896989086032288 C 2.230033352081484 2.151018403700353 2.438240257465398 2.050211434523661 2.5812724124330217 2.007684280777129 C 2.6292706530290237 1.9935728169605498 2.6783083477250678 1.983273891375794 2.7279281828678106 1.976883549306268 C 2.7893786618317353 1.9215227574468763 3.1328923753192575 1.6136412627197607 3.297666223089845 1.5041778788159639 C 3.421600917921569 1.423691897926286 3.5859602748722508 1.4472870316794628 3.6822475785385196 1.5593876866975571 C 3.6942645113490817 1.5732596347209467 3.694561841898016 1.5937648236492539 3.682952170434911 1.6079793635523236 L 3.2528743096763386 2.134133362183239 C 3.1931349824607937 2.239503402688948 3.1335298632255175 2.3449824871786213 3.0740589519705037 2.4505706156522593 C 3.0638213678779835 2.4687254813309165 3.0408066185556617 2.4751466301873633 3.022648907530171 2.4649140935431015 C 3.0044940418515123 2.4546765094505814 2.998072892995063 2.431661760128261 3.008305429639326 2.4135040491027673 C 3.068195740832668 2.3071861647364353 3.1284886759668042 2.200440492433009 3.1887816111009433 2.094122608066677 C 3.1898375214116967 2.0922616071346534 3.1910497597307206 2.090493759586073 3.1924052265681024 2.088838168843736 L 3.602980990194391 1.5865396387049575 C 3.5294168850688874 1.5216811409601074 3.4216658159150937 1.5137399643122096 3.3393881289547913 1.5671130335615724 C 3.1666372943571863 1.6818608566883093 2.773575672155508 2.0373526324145015 2.7696249247364486 2.0409259198890632 C 2.763723716757286 2.046277339548242 2.756280685371129 2.0496245015917225 2.7483613478631828 2.0504882384829584 C 2.698954889898899 2.056099763656625 2.650129327733234 2.0659928548007294 2.6024353333210906 2.0800559341351335 C 2.470525664717941 2.119286604366404 2.277819781054661 2.2127960146161745 2.1104792056615 2.43509475792793 C 2.0576165805605617 2.5052470468649815 2.014056510819971 2.5819466026722937 1.980884624717921 2.6632818763738215 C 1.9219494801315817 2.812401168286989 1.9082349808835568 2.975574827495801 1.9414526425162595 3.132439423385864 C 1.943398141739158 3.142263762037891 1.9413595344072396 3.152458542155511 1.9357856444675328 3.1607792601603455 C 1.9302117545278203 3.169099978165179 1.9215595661919775 3.174864446787828 1.9117339628862842 3.1768035488622757 C 1.9093398460613793 3.177292270851347 1.906904871921767 3.177553461849023 1.9044615679556631 3.1775836327475666 Z" fill="#212121" transform="matrix(1,0,0,1,0,0)" fill-rule="nonzero"></path></g><g clip-path="url(#SvgjsClipPath14423783dfefa5-a088-4fec-a99b-5725bed65957)"><path d=" M 2.8643925348012105 3.171821077594931 C 2.85642296829504 3.171831005983167 2.8486575418007614 3.169301292698425 2.8422230540611504 3.1645990106569113 C 2.8340926859440563 3.158709656729185 2.8286434115900803 3.1498240314487114 2.8270803253659973 3.1399071702082963 C 2.8255172391419143 3.129990308967883 2.8279691311926265 3.119859309363622 2.833893771285947 3.111754618427492 C 2.8698865944689085 3.0622461371853107 2.912548918324666 3.0179494686483013 2.9606699846439524 2.980121753783639 L 3.6815178226458256 2.285243159963078 C 3.750159297163121 2.219256339091167 3.796627566295032 2.1335911837170487 3.8145095430898635 2.0400703440148735 C 3.8485815940796892 1.8639223699168108 3.9055780456985634 1.550529960000055 3.9060813256245575 1.4274276901018088 L 3.826965721258226 0.5041858298612577 L 3.8241725176689583 0.5051168977243461 C 3.7742844410175564 0.5232936757616293 3.7328303577544957 0.5591942733671478 3.707713542793833 0.6059741948936379 C 3.6819456105829196 0.651999144125832 3.6895199734691375 0.7439483866050204 3.696213596484865 0.8250771106753286 C 3.6991577840519296 0.8609609693987339 3.7022026276042004 0.8980526999445261 3.7026807435338918 0.9320240949491532 C 3.7026979523993337 0.9333935445861882 3.70263914598369 0.934762893979064 3.7025045955597973 0.9361258263460065 L 3.658996045957571 1.3907385834968096 C 3.657006453334706 1.4114866562576194 3.6385762641558514 1.4266949419492172 3.617827748011224 1.4247099785014368 C 3.607859512843023 1.4237607713538205 3.598676921309362 1.418889624878289 3.5923009611603933 1.4111686250235818 C 3.5859250010114274 1.4034476251688732 3.582878222797935 1.3935095570579203 3.583831189010296 1.383541680555087 L 3.627163590638422 0.9310175350971635 C 3.626635146716128 0.9002168036263026 3.623892271119457 0.866698360555071 3.6209732475486893 0.83126745376506 C 3.613021424717977 0.7348893479371198 3.6048179619242675 0.6352147585939149 3.6418593644774613 0.5691089403145415 C 3.6760286574653063 0.5061261384365516 3.732195287056015 0.4579321245293731 3.799637621276727 0.4337266402220297 C 3.8247678852993703 0.4217703914237349 3.8540886317037883 0.42248986161912633 3.878602241665259 0.4356642679371092 C 3.89242370605312 0.44568156677511345 3.9005954635634517 0.46172554429253065 3.900570410434919 0.47879535759483416 L 3.98142233054593 1.4226213668085586 C 3.98142233054593 1.423678254653147 3.981573314523727 1.4247603064940353 3.981573314523727 1.4258423583349236 C 3.981573314523727 1.547686428418183 3.931018845957583 1.8349082821832265 3.8886426761888506 2.0543886579094144 C 3.867829758241908 2.163182661449677 3.813765231422705 2.262835832204087 3.7339092629418467 2.3395973919704787 L 3.011702569139788 3.0358096775949237 C 3.0107739669171396 3.0367083474581293 3.009790695659356 3.0375487502425584 3.008758381572723 3.0383260772248972 C 2.9655342874336807 3.072107146677636 2.927234581399679 3.111753525259049 2.8949667903053715 3.1561187439039036 C 2.887887841344036 3.1659584454427554 2.876514036042407 3.1717998071779148 2.8643925348012105 3.1718210775949323 Z" fill="#212121" transform="matrix(1,0,0,1,0,0)" fill-rule="nonzero"></path></g><g clip-path="url(#SvgjsClipPath14423783dfefa5-a088-4fec-a99b-5725bed65957)"><path d=" M 3.4473416730806012 1.312176587049075 C 3.446131593822638 1.312179438773441 3.4449221548245643 1.3121206465999218 3.443718057613442 1.3120004390749778 C 3.4229706526458448 1.31002348131326 3.4077517979529395 1.2916054003192556 3.4097214986125164 1.2708573051249297 L 3.4337279510824503 1.0186888982054 C 3.4337279510824503 0.9504441402405515 3.432494915263765 0.8689631202220476 3.431211551452477 0.7901243198150131 C 3.4302553195930887 0.7252767013506252 3.4292739237374 0.6604794108788385 3.428921627789203 0.6018976274930818 C 3.428699393322633 0.5652231921066334 3.435587115825856 0.5288532827099699 3.4492038088067836 0.4947996592414544 C 3.453104228233237 0.48498570068456825 3.4573317796115903 0.47466846220168085 3.4615090029973463 0.46480417565218907 C 3.484791350564933 0.4075270865465402 3.5298804359665334 0.36184960713749226 3.5868508685662692 0.3378266503237838 C 3.591632027863217 0.3359141866050057 3.5962370391860667 0.3341527068640247 3.6007917225163144 0.3325422111008437 C 3.6302849209693124 0.3220788457652791 3.6630204167019227 0.3265623893068797 3.6886140696023495 0.3445706013321121 C 3.7139830094312534 0.362516556985529 3.72906831841182 0.39165521973033063 3.729077775652302 0.4227299738390525 L 3.729077775652302 0.5620126933580218 C 3.729077775652302 0.5828592304597262 3.712178318304423 0.5997586878076065 3.691331781202717 0.5997586878076065 C 3.6704852441010143 0.5997586878076065 3.6535857867531325 0.5828592304597262 3.6535857867531325 0.5620126933580218 L 3.6535857867531325 0.4227299738390525 C 3.6536749747079162 0.41615475359482673 3.650486379852711 0.4099662381362084 3.645080356003832 0.40622239226643236 C 3.6395258956624708 0.40231463065484274 3.63240986585577 0.40137460029728456 3.6260312108049364 0.4037059926364615 C 3.622424371335309 0.4049809684489812 3.6187504278755496 0.40637337624423087 3.615009380425659 0.4078832160222148 C 3.576732366994737 0.424340416322441 3.546555949326289 0.4553223832327888 3.531112616762386 0.4940195753561675 C 3.527111541350727 0.5035567299537637 3.523085301942774 0.5133706885106555 3.5193358664941146 0.5227820231267517 C 3.5093051325988625 0.5478039428767263 3.504236946325759 0.5745379844657003 3.5044136166883786 0.6014950035522848 C 3.5047659126365756 0.6598251469750444 3.5057473084922637 0.7244211254764339 3.506703540351655 0.7890171039778234 C 3.5079114121740402 0.8688121362442462 3.5092199399816257 0.9513248801110398 3.5092199399816257 1.0205258699352782 C 3.5092199399816257 1.0217085777613664 3.5092199399816257 1.022891285587452 3.5090689560038286 1.0240991574098386 L 3.484886355559795 1.278029044070348 C 3.483032950193232 1.2973818739227012 3.4667830440589507 1.3121614467271414 3.4473416730806012 1.312176587049075 Z" fill="#212121" transform="matrix(1,0,0,1,0,0)" fill-rule="nonzero"></path></g><g clip-path="url(#SvgjsClipPath14423783dfefa5-a088-4fec-a99b-5725bed65957)"><path d=" M 3.229194989158302 1.396677286623545 C 3.227689933834207 1.3966806071231588 3.2261859539637174 1.3965965859013434 3.2246906338206514 1.396425646660548 C 3.214749740125442 1.3952412761653386 3.2056865330988917 1.3901562803064953 3.1994949398280386 1.3822893702588495 C 3.193303346557186 1.3744224602112034 3.1904905854644094 1.3644180971867255 3.191675470675417 1.3544772648289114 L 3.2223755461610777 1.0971754026642389 C 3.201111969287812 0.8309403218131657 3.232441144680967 0.6625931865680166 3.3158094644219487 0.5967138442553402 C 3.346274595185991 0.5710022638643171 3.3873750862036496 0.5617863594784146 3.4259019482332382 0.5720279638853122 C 3.4354265453190944 0.5751166523393315 3.4433336528403378 0.5818631773201742 3.4478831439955897 0.5907828228423962 C 3.452432635150839 0.599702468364621 3.453251683713244 0.6100642784440473 3.450160040666178 0.6195879168917887 C 3.4438295357718127 0.6390968264646766 3.4230790328453735 0.6499805043593202 3.4034304995375897 0.6440976492877183 C 3.387953363390811 0.6415165755822101 3.3721701493260356 0.6464383234000403 3.3609033457910544 0.6573590753376721 C 3.3264538348567316 0.6863228350786549 3.272426734801228 0.7816943810546052 3.2979933550417444 1.0948351510083638 C 3.2981954764848584 1.0973502719031152 3.2981448954845063 1.0998793219208016 3.2978423710639473 1.1023843498982804 L 3.266764835633787 1.363410483515312 C 3.2644925916983665 1.382423776348353 3.2483435213967153 1.39672322104948 3.229194989158302 1.396677286623545 Z" fill="#212121" transform="matrix(1,0,0,1,0,0)" fill-rule="nonzero"></path></g><g clip-path="url(#SvgjsClipPath14423783dfefa5-a088-4fec-a99b-5725bed65957)"><path d=" M 2.8644428627938106 1.7393102602405806 C 2.8592472158778985 1.7393120643500135 2.8541071413274626 1.7382412154853388 2.8493444650139774 1.7361647607031143 C 2.840157873588409 1.7321709412206912 2.832935566990033 1.724689258150729 2.8292682319546287 1.7153675249526288 C 2.8256008969192243 1.7060457917545273 2.825789333738531 1.695648590894421 2.8297920398890906 1.686465868011161 L 2.9697541873081525 1.3650713072710945 L 3.0060658339686523 1.050244549565255 C 3.006289394011678 1.0483934976190614 3.0066425571551134 1.0465604127317134 3.0071227218132375 1.0447587983719149 C 3.0333937696941544 0.9411442875856411 3.100434236021586 0.8525495898344022 3.193009162479294 0.7991078664940165 C 3.211653201673419 0.7897935023364958 3.2343180683381587 0.7973522128394993 3.243639123034338 0.8159929080111294 C 3.2529375993941785 0.8345909715434129 3.2454440702969927 0.8572065773772604 3.2268799014987253 0.8665725405735725 C 3.1542947171543267 0.9097706458677614 3.1017521855963683 0.9799359135612064 3.080727410989928 1.0617444958742264 L 3.044113796373831 1.3792889651804368 C 3.043670046545737 1.3829991107413244 3.0426954672077504 1.3866262407992238 3.0412199367993606 1.3900591555967183 L 2.898993029713325 1.7166123355782277 C 2.8930112849389453 1.7303728515586894 2.879447274500062 1.7392838037916654 2.8644428627938106 1.7393102602405806 Z" fill="#212121" transform="matrix(1,0,0,1,0,0)" fill-rule="nonzero"></path></g><g clip-path="url(#SvgjsClipPath14423783dfefa5-a088-4fec-a99b-5725bed65957)"><path d=" M 0.9404037057169624 2.46974558083265 C 0.926773557730477 2.469745389642886 0.9142022218312423 2.4623968811294845 0.9075143625532235 2.4505202876596606 C 0.8481608832809413 2.34518379914902 0.7885473760468977 2.2397047146593465 0.7286738408510884 2.13408303419064 L 0.29862114408881646 1.6079290355597249 C 0.2870114726257113 1.5937144956566553 0.28730880317464397 1.5732093067283481 0.2993257359852091 1.55933735870496 C 0.39558029550871354 1.4472396026107046 0.55991437543836 1.4236327108930635 0.6838315994449825 1.5041023868270682 C 0.8486809392044697 1.6135909347271622 1.1921443246993935 1.9214221014616792 1.2536702956522165 1.9768332213136695 C 1.3032388280710898 1.983233755932975 1.352225551215433 1.9935325792116885 1.400175082109207 2.007633952784529 C 1.543333057058331 2.0502114345236624 1.7515147984459445 2.151068731692953 1.9311354040333708 2.3897240725995315 C 1.9371419201254245 2.3977327607222683 1.9397209859868074 2.407799513056876 1.9383052365668079 2.417709758996869 C 1.9368894871468083 2.4276200049368604 1.931594893266192 2.4365619487368972 1.9235862051434554 2.442568464828951 C 1.915577517020716 2.448574980921004 1.905510764686107 2.451154046782385 1.8956005187461153 2.4497382973623867 C 1.885690272806121 2.4483225479423885 1.8767483290060856 2.443027954061771 1.8707418129140316 2.435019265939033 C 1.7033509095282737 2.2127205226272775 1.5107205178538907 2.119211112377505 1.3786095372803437 2.0799049501573363 C 1.3310141181812707 2.0658527719356186 1.2822905135026794 2.05595144843432 1.2329854906938433 2.050312090508864 C 1.2250661531859024 2.049448353617627 1.2176231217997413 2.0461011915741474 1.2117219138205786 2.040749771914968 C 1.2077711664015225 2.037176484440407 0.814709544199844 1.681684708714215 0.641908381609643 1.5668865575948767 C 0.559626383023682 1.5135705144556861 0.4519161420466891 1.521530767154644 0.37836584836263926 1.586363490730862 L 0.7889416119889248 2.08866202086964 C 0.7902805675663321 2.090324373262239 0.7914839162485473 2.092091528669685 0.7925400634597852 2.0939464600925803 C 0.8529336545791201 2.2002643444589136 0.9131510977243593 2.3070100167623395 0.9730414089177014 2.4133279011286715 C 0.9832739455619645 2.431485612154165 0.9768527967055166 2.4545003614764855 0.9586979310268606 2.4647379455690057 C 0.9531254770209181 2.4679370520192 0.9468286039746735 2.4696606802670718 0.9404037057169624 2.46974558083265 Z" fill="#212121" transform="matrix(1,0,0,1,0,0)" fill-rule="nonzero"></path></g><g clip-path="url(#SvgjsClipPath14423783dfefa5-a088-4fec-a99b-5725bed65957)"><path d=" M 1.117180779722518 3.171821077594931 C 1.1050953445118952 3.171826785845951 1.0937379235630944 3.166045166285522 1.0866316882146543 3.156269727881702 C 1.0543543576271253 3.111911704617965 1.016046184735998 3.0722737985533017 0.9728149329510029 3.0385022251989975 C 0.9717888909267056 3.0377171142764676 0.970806059859634 3.0368770877234144 0.9698707453839365 3.035985825569022 L 0.24766405158187638 2.339773539944577 C 0.16780664006806578 2.2630167117788518 0.11374913426614906 2.163360275415983 0.09295580233117667 2.0545648058835115 C 0.050554468566143033 1.8352354141351237 -2.8290779955311e-15 1.54813938035158 -2.8290779955311e-15 1.426018506309022 C -2.8290779955311e-15 1.4249364544681338 -2.8290779955311e-15 1.4238544026272455 0.00015098397779570252 1.4227975147826573 L 0.08097774009250684 0.4789463415726341 C 0.08096900934472082 0.46188737380470024 0.08913808376426431 0.44585802159315435 0.10294590886216702 0.43584041591120637 C 0.12745951882363593 0.42266600959322487 0.15678026522805422 0.4219465393978334 0.18191052925069578 0.43390278819612826 C 0.24936828732632355 0.45809259162403226 0.3055478830583467 0.5062900441895387 0.33971395004626187 0.56928508828864 C 0.376755352599454 0.6353909065680133 0.3685518898057446 0.7350654959112184 0.36060006697503233 0.8314436017391584 C 0.3576810434042645 0.8668745085291696 0.35493816780759374 0.9003929516004011 0.3544097238852996 0.931193683071262 L 0.39774212551342303 1.383717828529187 C 0.39869509172578355 1.3936857050320188 0.3956483135122926 1.4036237731429717 0.38927235336332405 1.4113447729976818 C 0.3828963932143583 1.419065772852389 0.37371380168069707 1.4239369193279203 0.3637455665124973 1.4248861264755353 C 0.3430064032278366 1.426856307137204 0.324592314540196 1.4116520137253892 0.322602432562449 1.390914731470908 L 0.2790687189639271 0.9363019743201064 C 0.278934168540033 0.9349390419531639 0.2788753621243892 0.9335696925602867 0.27889257098982856 0.9322002429232518 C 0.27937068691952416 0.8982540119149246 0.2824155304717906 0.8611371173728324 0.2853597180388584 0.8252532586494271 C 0.29205334105458525 0.744124534579119 0.2996528679371005 0.6521752920999306 0.27385977172988557 0.6061503428677351 C 0.24873309635335572 0.559368737551625 0.20727067228167642 0.5234686736762126 0.15737563285846481 0.5052930456984446 L 0.15458242926919694 0.5043619778353563 L 0.07549198889916679 1.427578674079606 C 0.07599526882516094 1.5508822559482507 0.1329917204440352 1.8640985178909064 0.1670637714338595 2.0402464919889707 C 0.1849568039187515 2.133763383466525 0.23142335564397884 2.2194253727681104 0.30005549187789754 2.285419307937175 L 1.0208781658834736 2.9802979017577362 C 1.069005961946645 3.018126247086735 1.1116765231461925 3.0624226760676527 1.1476795432377789 3.111930766401589 C 1.1536067863762618 3.1200323633141536 1.1560627621003707 3.1301612744276186 1.1545044333816317 3.140077911728674 C 1.152946104662894 3.1499945490297323 1.1475018443362188 3.158881994478074 1.139375424458871 3.1647751586310084 C 1.1329046590519107 3.169404181971253 1.125136673646723 3.171870209084011 1.117180779722518 3.171821077594931 Z" fill="#212121" transform="matrix(1,0,0,1,0,0)" fill-rule="nonzero"></path></g><g clip-path="url(#SvgjsClipPath14423783dfefa5-a088-4fec-a99b-5725bed65957)"><path d=" M 0.5342316414431273 1.312176587049075 C 0.5147911518541415 1.31214724869285 0.49855246926592484 1.2973570870866797 0.49671212296023953 1.2780038800740492 L 0.4725295225162056 1.0240739934135414 C 0.47240868352103876 1.0228867730288156 0.47234988756526297 1.0216940550688047 0.4723533745421085 1.020500705938981 C 0.4723533745421071 0.9515765200740397 0.4735864103607925 0.8695167281406403 0.4748697741720793 0.7899733358372146 C 0.47587633402406904 0.7250502253839295 0.4768325658834574 0.6601019509343429 0.47715969783535445 0.6014446755596876 C 0.47734815941506703 0.5744971346918579 0.4722883348115672 0.5477706625041096 0.462262612025921 0.5227568591304544 C 0.45851317657726054 0.5132951965217569 0.45448693716930444 0.5035064019611636 0.4505110257539483 0.4940195753561675 C 0.43504691098216974 0.4552983976186465 0.4048444055291003 0.4242994221386448 0.3665387701017722 0.40783288802961337 C 0.36283966264571316 0.4063482122479309 0.35921604717855266 0.4049893564477469 0.35556726771509356 0.4037059926364615 C 0.3491812522307785 0.4013657530844048 0.3420535714378991 0.4023060803657872 0.33649295851990263 0.40622239226643375 C 0.33109302281026143 0.4099688701574143 0.32791333854472343 0.41615840392059733 0.3280126917668962 0.4227299738390525 L 0.3280126917668962 0.5620126933580218 C 0.3280126917668962 0.5828592304597262 0.3111132344190158 0.5997586878076065 0.29026669731731136 0.5997586878076065 C 0.26942016021560694 0.5997586878076065 0.25252070286772654 0.5828592304597262 0.25252070286772654 0.5620126933580218 L 0.25252070286772654 0.4227299738390525 C 0.25252015733376637 0.39165878817708005 0.26759655716203096 0.36251921265336967 0.2929592449213708 0.34457060133211914 C 0.3185417508866232 0.3265340599461215 0.351291512740024 0.3220485624773756 0.3807815920074172 0.3325422111008437 C 0.3853111113413675 0.33412754286772617 0.38996645065681634 0.3359141866050071 0.3946972819611651 0.33780148632748663 C 0.45170433553459727 0.36183499634408794 0.49682177004779493 0.4075408404165481 0.5201146395189865 0.46485450364478903 C 0.5242666989084397 0.4747691181868794 0.5284942502867944 0.48498570068456825 0.5324198337095492 0.49487515123035863 C 0.5460029930099934 0.5289074442293826 0.5528402306489459 0.56525590882746 0.5525510307493298 0.6018976274930818 C 0.5522238987974327 0.6607562148381342 0.551267666938043 0.7259309652544178 0.5502611070860532 0.7911057156707014 C 0.5491035632562663 0.8695922201295389 0.5478956914338795 0.9507209441998471 0.547744707456081 1.0186888982053985 L 0.5717511599260164 1.2708573051249281 C 0.5737208605855937 1.2916054003192543 0.5585020058926897 1.3100234813132574 0.5377546009250906 1.312000439074975 C 0.5365839591171102 1.312117944452897 0.5354081658733016 1.312176734115089 0.5342316414431258 1.312176587049075 Z" fill="#212121" transform="matrix(1,0,0,1,0,0)" fill-rule="nonzero"></path></g><g clip-path="url(#SvgjsClipPath14423783dfefa5-a088-4fec-a99b-5725bed65957)"><path d=" M 0.7523783253654296 1.396677286623545 C 0.7332777736878109 1.396659442877916 0.7172008903247666 1.3823760827932756 0.714934298871439 1.363410483515312 L 0.683781271452384 1.102384349898282 C 0.6834787470318267 1.0998793219208016 0.6834281660314729 1.0973502719031152 0.6836302874745854 1.0948351510083623 C 0.7091214157262048 0.7816692170583066 0.6551194796669998 0.6863228350786549 0.620720296725277 0.6573590753376736 C 0.6094098674091067 0.6464263794067926 0.5935800174615153 0.6415139893935573 0.5780673229972463 0.6441228132840169 C 0.5582141200491436 0.6493306597224977 0.5377870713724711 0.6379514614107656 0.5317655698057551 0.6183297170768034 C 0.5258048188746052 0.5989393896019883 0.5364703220437691 0.5783470225177699 0.5557468582793919 0.5720279638853122 C 0.5942657539037235 0.5617863047741417 0.6353587841140396 0.5710026428254269 0.6658141780943828 0.5967138442553402 C 0.7490818418501676 0.662568022571718 0.7805116732285211 0.8309151578168671 0.7592480963552565 1.0971754026642389 L 0.7899733358372187 1.35447726482891 C 0.7911582210482261 1.3644180971867255 0.7883454599554485 1.3744224602112034 0.7821538666845956 1.3822893702588495 C 0.7759622734137441 1.3901562803064953 0.7668990663871937 1.3952412761653386 0.7569581726919813 1.3964256466605496 C 0.7554378345879016 1.3965995265217916 0.7539085615875583 1.3966835525108214 0.7523783253654296 1.396677286623545 Z" fill="#212121" transform="matrix(1,0,0,1,0,0)" fill-rule="nonzero"></path></g><g clip-path="url(#SvgjsClipPath14423783dfefa5-a088-4fec-a99b-5725bed65957)"><path d=" M 1.1171304517299194 1.7393102602405806 C 1.1021105988434436 1.7393225472099643 1.0885127309606895 1.7304285929261856 1.082504792821501 1.716662663570829 L 0.9402778857354652 1.3901094835893197 C 0.9388023553270768 1.3866765687918265 0.9378277759890901 1.3830494387339272 0.937384026160996 1.3793392931730382 L 0.9007452475485995 1.0617948238668307 C 0.8795920669800069 0.9801182707263558 0.8271698510189813 0.9100351909743208 0.7547940690102033 0.8666731965587753 C 0.7361533738385703 0.8573521418625969 0.7285946633355668 0.8346872751978544 0.7379090274930875 0.8160432360037323 C 0.7472297360324966 0.7974171002310086 0.7698760250859574 0.789860829741266 0.7885138240518348 0.799158194486618 C 0.8810869510766334 0.852596241287879 0.9481206011657961 0.9411939250369177 0.9743751007215896 1.0448091263645163 C 0.9748673609639598 1.0466079461095719 0.9752206965989525 1.048441926310251 0.9754319885661793 1.0502948775578564 L 1.0117687992229787 1.365121635263696 L 1.1517309466420407 1.6865161960037638 C 1.1557336527926019 1.6956989188870237 1.1559220896119085 1.7060961197471287 1.1522547545765025 1.7154178529452302 C 1.1485874195410983 1.7247395861433317 1.1413651129427238 1.732221269213291 1.1321785215171556 1.736215088695717 C 1.1274266398199646 1.7382640626697439 1.1223052582204038 1.7393174572127972 1.1171304517299194 1.7393102602405792 Z" fill="#212121" transform="matrix(1,0,0,1,0,0)" fill-rule="nonzero"></path></g></g><g transform="matrix(-0.41495039505437276,-0.9098440358897892,0.9098440358897892,-0.41495039505437276,-4.248185170112997,2.5272716773471107)"><g clip-path="url(#SvgjsClipPath144251)"><path d=" M -1.5189668313009796 2.7612363823840496 C -1.4850575114892914 2.7630313581632704 -1.4511396753691614 2.7578582467022317 -1.4193081164503303 2.746033679981452 C -1.3969744251126681 2.7353773760853484 -1.3797343596905902 2.716355436897037 -1.3713185000152655 2.693086261832102 C -1.3643700657944864 2.7039107082282055 -1.355093840599681 2.713047178617816 -1.3441645780996812 2.719827470338595 C -1.3312023199178629 2.727441923552881 -1.315993066508772 2.7303003460528807 -1.3011506694633175 2.72790704501392 C -1.286308272417863 2.72551592764379 -1.272765158326954 2.718025943552881 -1.2628513018334473 2.706725457351582 C -1.249565860664616 2.6923350797541796 -1.2423684881970836 2.6733589976113223 -1.2427702832620187 2.6537780392022317 C -1.2439341787490317 2.6320505343321017 -1.2493671468009797 2.610764130565868 -1.258761290112668 2.5911373151113226 L -1.2824409949178628 2.602188863065868 C -1.2789602268009799 2.6096744798191147 -1.2769971085217589 2.617775891182751 -1.27666300719059 2.626025792026907 C -1.2759969881970836 2.6349853852411926 -1.278704737547733 2.6438729173840496 -1.284255623716564 2.650937086052881 C -1.2872363316711097 2.6538872226437897 -1.2908153648853953 2.6561604218970367 -1.2947503361191615 2.6576081943321017 C -1.298687491021759 2.6590537830983356 -1.3028866861840966 2.6596368226762577 -1.307068411995785 2.659320190695738 C -1.3118724834243565 2.6594031701113225 -1.316639432482798 2.658479478195738 -1.321063545534746 2.656605890338595 C -1.325487658586694 2.6547323024814524 -1.329470670534746 2.6519524920593742 -1.3327527247879927 2.648443336247686 C -1.3361920031970835 2.644888323390543 -1.3388910178724083 2.6406847608905433 -1.3406903609892915 2.636077219656777 C -1.3424897041061745 2.6314696784230107 -1.3433544369633175 2.6265498725463874 -1.3432343351776033 2.621606046312621 C -1.3427626627100706 2.6096875818321017 -1.3394762411191616 2.5980486269619716 -1.333645845339941 2.587641261312621 C -1.32781544956072 2.577236079332102 -1.3196070384243563 2.568355098195738 -1.3096888145931875 2.5617276632931407 C -1.2879765954048759 2.544387149104829 -1.2609405916061744 2.5350803525463874 -1.2331555893983823 2.5353810437444393 C -1.2047962822879927 2.5347953837639197 -1.1773628507620186 2.545498636539894 -1.1568931391386421 2.5651385540074263 C -1.146867915534746 2.5741702082931406 -1.1388800549503304 2.585232674591842 -1.1334580052425383 2.597590056507426 C -1.1280359555347461 2.6099452547541797 -1.125306369495785 2.6233158590074264 -1.1254461243009797 2.6368087487152185 C -1.124389228586694 2.66223757225418 -1.1333248014438368 2.6870724378710626 -1.1503421326451355 2.705998295630803 C -1.1680211155022784 2.724317093455478 -1.1922467375152654 2.734870764916517 -1.2177017650802004 2.735346804721712 L -1.2177017650802004 2.7612975251113223 L -1.2091614362814993 2.7612975251113223 C -1.1675953000802006 2.7632693780658677 -1.126666795177603 2.750505833747686 -1.0935907633918889 2.725258254721712 C -1.079366344625655 2.713940299169764 -1.0679785116711096 2.6994582074814524 -1.0603356707620186 2.6829671404684654 C -1.052692829852928 2.666473889786647 -1.0490024295282525 2.648425866897037 -1.049561448749032 2.630257742221712 C -1.049292857482798 2.6117882712476863 -1.052952686443837 2.593473840760673 -1.0603007320607198 2.5765285706308028 C -1.0676487776776031 2.559583300500933 -1.0785190811191616 2.5443958837801537 -1.0921844806646162 2.531971244864569 C -1.1059765330022784 2.518758956601582 -1.1222361311191615 2.5083946092282057 -1.1400352157620188 2.501471068832102 C -1.157834300404876 2.494547528435998 -1.1768234845607202 2.4912006192184655 -1.1959174848204603 2.4916216305691146 C -1.2432747107620188 2.4916216305691146 -1.2929226053074734 2.512064701432751 -1.3448589847879928 2.552951498260673 L -1.3606469104373433 2.5655796551113226 C -1.3924498632944862 2.590744254721712 -1.4171823148431875 2.6033243708580756 -1.4348418630477329 2.6033243708580756 C -1.44448603644059 2.6032588607931406 -1.4537164045899407 2.5994003179684655 -1.4605373125509797 2.592580720208725 C -1.4673584388789018 2.585763306117816 -1.4712220041418889 2.5765351216372965 -1.4712920999113694 2.5668898564100235 C -1.4713121896646162 2.5611577257282057 -1.4700777616743563 2.555488921442491 -1.4676750708594213 2.5502830549489848 C -1.4652725984113695 2.5450771884554784 -1.4617603854633174 2.5404593839782055 -1.4573845314925382 2.5367545714392445 C -1.4483098589308498 2.5284221279132706 -1.436377637336694 2.523900186497686 -1.4240597798269539 2.524125541121063 C -1.4151925558042264 2.524683468507426 -1.406536055823707 2.527068034871063 -1.3986340134243564 2.5311292221632704 C -1.3907313159243564 2.5351904094554785 -1.3837523103399407 2.540840870923011 -1.3781380977750057 2.5477259787476862 L -1.358183731995785 2.530676765981452 C -1.3680298947555252 2.513741977461972 -1.3822717828724083 2.4997839662931405 -1.3994006995509798 2.4902799844392445 C -1.4165300529633174 2.4807760025853485 -1.4359103322068238 2.4760795860301537 -1.4554901987814992 2.476687737799634 C -1.4804257315314993 2.4757522540723613 -1.5048197144113693 2.484112430192491 -1.5239394819633174 2.5001462369522316 C -1.5326138880282525 2.5073776746535303 -1.539547910034746 2.516470253299634 -1.5442266388724084 2.526748782487946 C -1.5489053677100706 2.5370273116762574 -1.5512084832263044 2.548228222578855 -1.5509654408853952 2.5595177904359976 C -1.5510857610379927 2.567772058617816 -1.549572915271759 2.5759673677411925 -1.5465142503399407 2.5836342290074263 C -1.5434555854081227 2.5913032739424913 -1.5389113705704602 2.5982888305334004 -1.5331427726191615 2.6041934710528807 C -1.5203689650574732 2.6171513618970366 -1.5037641288983823 2.625652384656777 -1.4857840181094213 2.6284409297541798 C -1.4972231672814993 2.633993999591842 -1.5073060397425382 2.64198622751392 -1.515322069654876 2.651858594299634 C -1.5233380995672134 2.661728777416517 -1.5290925036711096 2.673236712156777 -1.5321799930314992 2.6855722573840497 L -1.5363632474113693 2.698674270371063 C -1.539119910943837 2.709334941604829 -1.544173575719811 2.719266267448985 -1.5511707057555253 2.727769473877556 C -1.5542171421418889 2.730457570208725 -1.5577680060282524 2.732512402578855 -1.5616162856094213 2.7338160528710627 C -1.5654647835574733 2.7351197031632704 -1.5695340504243565 2.7356459673515823 -1.573587376508772 2.7353620904035303 L -1.573587376508772 2.761314994461972 L -1.5189668313009796 2.7612363823840496 Z M -1.4933141817068238 2.7373819840723614 C -1.4786089190639666 2.731025324104829 -1.466688052547733 2.719580715760673 -1.4597367795574732 2.705146664786647 L -1.4552849339113694 2.697554048260673 C -1.4339419731224083 2.6598136998515822 -1.4105044371905902 2.638496724721712 -1.384972981216564 2.6336031228710626 C -1.3905609897555251 2.702799220793141 -1.4266749416191615 2.7373929024165173 -1.4933141817068238 2.7373819840723614 Z" fill="#212121" transform="matrix(1,0,0,1,0,0)" fill-rule="nonzero"></path></g></g><g transform="matrix(0.41495039505437276,-0.9098440358897892,-0.9098440358897892,-0.41495039505437276,5.48914907636612,8.536489054985026)"><g clip-path="url(#SvgjsClipPath144252)"><path d=" M 5.085700716759773 2.7612363823840496 C 5.119610036571462 2.7630313581632704 5.153527872691591 2.7578582467022317 5.185359431610423 2.746033679981452 C 5.207693122948085 2.7353773760853484 5.224933188370163 2.716355436897037 5.233349048045488 2.693086261832102 C 5.240297482266267 2.7039107082282055 5.249573707461073 2.713047178617816 5.260502969961072 2.719827470338595 C 5.27346522814289 2.727441923552881 5.288674481551982 2.7303003460528807 5.303516878597436 2.72790704501392 C 5.318359275642891 2.72551592764379 5.331902389733799 2.718025943552881 5.341816246227306 2.706725457351582 C 5.355101687396137 2.6923350797541796 5.36229905986367 2.6733589976113223 5.361897264798735 2.6537780392022317 C 5.360733369311721 2.6320505343321017 5.355300401259774 2.610764130565868 5.345906257948085 2.5911373151113226 L 5.32222655314289 2.602188863065868 C 5.325707321259774 2.6096744798191147 5.327670439538994 2.617775891182751 5.328004540870163 2.626025792026907 C 5.32867055986367 2.6349853852411926 5.32596281051302 2.6438729173840496 5.320411924344189 2.650937086052881 C 5.317431216389644 2.6538872226437897 5.313852183175358 2.6561604218970367 5.309917211941592 2.6576081943321017 C 5.305980057038994 2.6590537830983356 5.301780861876656 2.6596368226762577 5.297599136064968 2.659320190695738 C 5.292795064636397 2.6594031701113225 5.288028115577955 2.658479478195738 5.283604002526007 2.656605890338595 C 5.279179889474059 2.6547323024814524 5.275196877526008 2.6519524920593742 5.271914823272761 2.648443336247686 C 5.268475544863669 2.644888323390543 5.265776530188345 2.6406847608905433 5.263977187071462 2.636077219656777 C 5.2621778439545785 2.6314696784230107 5.261313111097436 2.6265498725463874 5.2614332128831505 2.621606046312621 C 5.261904885350683 2.6096875818321017 5.265191306941592 2.5980486269619716 5.271021702720812 2.587641261312621 C 5.276852098500033 2.577236079332102 5.285060509636397 2.568355098195738 5.294978733467566 2.5617276632931407 C 5.316690952655877 2.544387149104829 5.343726956454579 2.5350803525463874 5.371511958662371 2.5353810437444393 C 5.39987126577276 2.5347953837639197 5.427304697298735 2.545498636539894 5.447774408922111 2.5651385540074263 C 5.457799632526007 2.5741702082931406 5.4657874931104224 2.585232674591842 5.471209542818215 2.597590056507426 C 5.476631592526007 2.6099452547541797 5.479361178564968 2.6233158590074264 5.479221423759774 2.6368087487152185 C 5.480278319474059 2.66223757225418 5.471342746616917 2.6870724378710626 5.454325415415617 2.705998295630803 C 5.436646432558475 2.724317093455478 5.412420810545488 2.734870764916517 5.386965782980552 2.735346804721712 L 5.386965782980552 2.7612975251113223 L 5.395506111779254 2.7612975251113223 C 5.437072247980553 2.7632693780658677 5.47800075288315 2.750505833747686 5.511076784668864 2.725258254721712 C 5.525301203435098 2.713940299169764 5.536689036389643 2.6994582074814524 5.544331877298735 2.6829671404684654 C 5.551974718207825 2.666473889786647 5.555665118532501 2.648425866897037 5.555106099311722 2.630257742221712 C 5.555374690577955 2.6117882712476863 5.551714861616916 2.593473840760673 5.544366816000033 2.5765285706308028 C 5.53701877038315 2.559583300500933 5.526148466941592 2.5443958837801537 5.512483067396137 2.531971244864569 C 5.4986910150584745 2.518758956601582 5.4824314169415915 2.5083946092282057 5.464632332298734 2.501471068832102 C 5.446833247655878 2.494547528435998 5.427844063500033 2.4912006192184655 5.408750063240293 2.4916216305691146 C 5.361392837298735 2.4916216305691146 5.31174494275328 2.512064701432751 5.2598085632727605 2.552951498260673 L 5.24402063762341 2.5655796551113226 C 5.212217684766267 2.590744254721712 5.187485233217566 2.6033243708580756 5.16982568501302 2.6033243708580756 C 5.160181511620163 2.6032588607931406 5.150951143470812 2.5994003179684655 5.144130235509774 2.592580720208725 C 5.137309109181851 2.585763306117816 5.133445543918865 2.5765351216372965 5.133375448149384 2.5668898564100235 C 5.1333553583961375 2.5611577257282057 5.134589786386397 2.555488921442491 5.136992477201332 2.5502830549489848 C 5.139394949649384 2.5450771884554784 5.142907162597436 2.5404593839782055 5.147283016568215 2.5367545714392445 C 5.156357689129903 2.5284221279132706 5.168289910724059 2.523900186497686 5.180607768233799 2.524125541121063 C 5.189474992256526 2.524683468507426 5.198131492237046 2.527068034871063 5.206033534636397 2.5311292221632704 C 5.213936232136397 2.5351904094554785 5.220915237720813 2.540840870923011 5.226529450285748 2.5477259787476862 L 5.246483816064968 2.530676765981452 C 5.236637653305228 2.513741977461972 5.222395765188345 2.4997839662931405 5.2052668485097735 2.4902799844392445 C 5.188137495097436 2.4807760025853485 5.16875721585393 2.4760795860301537 5.149177349279254 2.476687737799634 C 5.1242418165292545 2.4757522540723613 5.099847833649384 2.484112430192491 5.080728066097436 2.5001462369522316 C 5.072053660032501 2.5073776746535303 5.065119638026007 2.516470253299634 5.060440909188345 2.526748782487946 C 5.0557621803506825 2.5370273116762574 5.053459064834449 2.548228222578855 5.053702107175358 2.5595177904359976 C 5.05358178702276 2.567772058617816 5.055094632788994 2.5759673677411925 5.058153297720812 2.5836342290074263 C 5.061211962652631 2.5913032739424913 5.065756177490293 2.5982888305334004 5.071524775441592 2.6041934710528807 C 5.08429858300328 2.6171513618970366 5.100903419162371 2.625652384656777 5.118883529951332 2.6284409297541798 C 5.1074443807792544 2.633993999591842 5.097361508318215 2.64198622751392 5.089345478405877 2.651858594299634 C 5.081329448493539 2.661728777416517 5.075575044389644 2.673236712156777 5.072487555029254 2.6855722573840497 L 5.068304300649384 2.698674270371063 C 5.065547637116916 2.709334941604829 5.060493972340942 2.719266267448985 5.053496842305228 2.727769473877556 C 5.050450405918864 2.730457570208725 5.0468995420325005 2.732512402578855 5.043051262451332 2.7338160528710627 C 5.03920276450328 2.7351197031632704 5.035133497636397 2.7356459673515823 5.031080171551982 2.7353620904035303 L 5.031080171551982 2.761314994461972 L 5.085700716759773 2.7612363823840496 Z M 5.11135336635393 2.7373819840723614 C 5.126058628996787 2.731025324104829 5.1379794955130205 2.719580715760673 5.14493076850328 2.705146664786647 L 5.149382614149384 2.697554048260673 C 5.170725574938345 2.6598136998515822 5.194163110870163 2.638496724721712 5.219694566844189 2.6336031228710626 C 5.214106558305228 2.702799220793141 5.177992606441592 2.7373929024165173 5.11135336635393 2.7373819840723614 Z" fill="#212121" transform="matrix(1,0,0,1,0,0)" fill-rule="nonzero"></path></g></g></g><defs><clipPath id="SvgjsClipPath144250"><path d=" M 0 0 h 3.981573314523729 v 3.1775584687512684 h -3.981573314523729 Z"></path></clipPath><clipPath id="SvgjsClipPath14423783dfefa5-a088-4fec-a99b-5725bed65957"><path d=" M 0 0 L 3.981573314523729 0 L 3.981573314523729 3.1775584687512684 L 0 3.1775584687512684 Z"></path></clipPath><clipPath id="SvgjsClipPath144251"><path d=" M -1.6172607531321486 2.323760168747686 h 0.6114272727272727 v 0.6114272727272727 h -0.6114272727272727 Z"></path></clipPath><clipPath id="SvgjsClipPath144252"><path d=" M 4.987406794928605 2.323760168747686 h 0.6114272727272727 v 0.6114272727272727 h -0.6114272727272727 Z"></path></clipPath></defs></svg>